<svg preserveAspectRatio="none" width="100%" height="100%" overflow="visible" style="display: block;" viewBox="0 0 639.739 509.353" fill="none" xmlns="http://www.w3.org/2000/svg">
<g id="Group 3">
<path id="Vector 10" d="M410.953 69.5885L392.124 88.4182L464.875 161.17L428.499 199.257L446.473 217.231L502.535 161.17L410.953 69.5885Z" stroke="var(--stroke-0, #181818)" stroke-width="4"/>
<path id="Vector 18" d="M375.006 254.463L356.176 273.293L428.927 346.044L392.551 384.132L410.525 402.106L466.587 346.044L375.006 254.463Z" stroke="var(--stroke-0, #181818)" stroke-width="4"/>
<path id="Vector 23" d="M300.543 321.223L281.713 340.053L354.464 412.804L318.088 450.892L336.062 468.865L392.124 412.804L300.543 321.223Z" stroke="var(--stroke-0, #181818)" stroke-width="4"/>
<path id="Vector 21" d="M165.31 254.463L146.481 273.293L219.232 346.044L182.856 384.132L200.83 402.105L256.892 346.044L165.31 254.463Z" stroke="var(--stroke-0, #181818)" stroke-width="4"/>
<path id="Vector 12" d="M196.123 2.82843L177.293 21.6582L250.044 94.4096L213.669 132.497L231.643 150.471L287.704 94.4096L196.123 2.82843Z" stroke="var(--stroke-0, #181818)" stroke-width="4"/>
<path id="Vector 14" d="M302.254 37.0644L283.424 55.8942L356.176 128.646L319.8 166.733L337.774 184.707L393.835 128.646L302.254 37.0644Z" stroke="var(--stroke-0, #181818)" stroke-width="4"/>
<path id="Vector 11" d="M447.757 289.983L466.587 271.153L393.836 198.402L430.211 160.314L412.237 142.34L356.176 198.402L447.757 289.983Z" stroke="var(--stroke-0, #181818)" stroke-width="4"/>
<path id="Vector 24" d="M549.609 395.258L568.439 376.428L495.687 303.677L532.063 265.589L514.089 247.615L458.028 303.677L549.609 395.258Z" stroke="var(--stroke-0, #181818)" stroke-width="4"/>
<path id="Vector 27" d="M462.307 239.913L481.137 258.743L553.888 185.991L591.976 222.367L609.95 204.393L553.888 148.332L462.307 239.913Z" stroke="var(--stroke-0, #181818)" stroke-width="4"/>
<path id="Vector 25" d="M545.329 277.572L526.5 296.402L599.251 369.153L562.875 407.241L580.849 425.215L636.911 369.153L545.329 277.572Z" stroke="var(--stroke-0, #181818)" stroke-width="4"/>
<path id="Vector 26" d="M517.085 150.471L535.915 131.641L463.163 58.89L499.539 20.8025L481.565 2.82859L425.504 58.89L517.085 150.471Z" stroke="var(--stroke-0, #181818)" stroke-width="4"/>
<path id="Vector 13" d="M232.927 224.078L251.756 205.248L179.005 132.497L215.381 94.4094L197.407 76.4355L141.345 132.497L232.927 224.078Z" stroke="var(--stroke-0, #181818)" stroke-width="4"/>
<path id="Vector 20" d="M165.31 360.167L184.14 341.337L111.389 268.586L147.764 230.498L129.791 212.524L73.7292 268.586L165.31 360.167Z" stroke="var(--stroke-0, #181818)" stroke-width="4"/>
<path id="Vector 15" d="M341.626 258.314L360.455 239.485L287.704 166.733L324.08 128.646L306.106 110.672L250.044 166.733L341.626 258.314Z" stroke="var(--stroke-0, #181818)" stroke-width="4"/>
<path id="Vector 22" d="M313.381 506.525L332.211 487.695L259.459 414.944L295.835 376.856L277.861 358.882L221.8 414.944L313.381 506.525Z" stroke="var(--stroke-0, #181818)" stroke-width="4"/>
<path id="Vector 16" d="M136.349 199.06L155.039 180.093L228.324 252.306L266.143 215.651L284.249 233.492L228.602 289.965L136.349 199.06Z" stroke="var(--stroke-0, #181818)" stroke-width="4"/>
<path id="Vector 19" d="M2.82835 129.732L21.5189 110.765L94.8043 182.978L132.623 146.323L150.729 164.164L95.0817 220.637L2.82835 129.732Z" stroke="var(--stroke-0, #181818)" stroke-width="4"/>
<path id="Vector 17" d="M387.416 338.341L368.586 357.171L295.835 284.42L257.747 320.795L239.774 302.822L295.835 246.76L387.416 338.341Z" stroke="var(--stroke-0, #181818)" stroke-width="4"/>
</g>
</svg>
