<svg preserveAspectRatio="none" width="100%" height="100%" overflow="visible" style="display: block;" viewBox="0 0 557 540.826" fill="none" xmlns="http://www.w3.org/2000/svg">
<g id="Group 1">
<path id="Vector" d="M557 247.302L464.657 320.788L487.959 486.563L423.447 521.821L382.505 214.945L557 247.302Z" fill="var(--fill-0, #181818)"/>
<path id="Vector_2" d="M402.96 535.048L301.851 473.597L154.929 540.826L101.454 490.378L379.934 359.201L402.96 535.048Z" fill="var(--fill-0, #181818)"/>
<path id="Vector_3" d="M45.066 154.852L158.571 147.81L237.177 0L310.096 9.38799L164.637 282.91L45.066 154.852Z" fill="var(--fill-0, #181818)"/>
<path id="Vector_4" d="M333.968 15.0233L376.196 121.899L541.088 150.969L554.689 223.209L249.559 169.415L333.968 15.0233Z" fill="var(--fill-0, #181818)"/>
<path id="Vector_5" d="M87.8265 473.803L112.743 363.164L0 241.211L31.4636 172.462L243.128 399.145L87.8265 473.803Z" fill="var(--fill-0, #181818)"/>
</g>
</svg>
