<svg width="143" height="37" viewBox="0 0 143 37" fill="none" xmlns="http://www.w3.org/2000/svg">
<g clip-path="url(#clip0_249_1075)">
<path d="M37.9456 16.8473L31.6547 21.8535L33.2422 33.1469L28.8472 35.5489L26.0581 14.643L37.9456 16.8473Z" fill="#FF3D3D"/>
<path d="M27.4517 36.4501L20.5636 32.2637L10.5545 36.8438L6.91162 33.4069L25.883 24.4705L27.4517 36.4501Z" fill="#FF3D3D"/>
<path d="M3.07031 10.5493L10.8028 10.0695L16.1578 0L21.1255 0.639556L11.216 19.2732L3.07031 10.5493Z" fill="#FF3D3D"/>
<path d="M22.7518 1.02342L25.6286 8.30434L36.8618 10.2847L37.7884 15.206L17.0015 11.5414L22.7518 1.02342Z" fill="#FF3D3D"/>
<path d="M5.98317 32.2777L7.6806 24.7404L0 16.4323L2.14345 11.7488L16.5631 27.1916L5.98317 32.2777Z" fill="#FF3D3D"/>
<path d="M54.9874 19.7939C54.9874 20.2738 54.8057 20.6937 54.4425 21.0535C54.0792 21.4134 53.6551 21.5934 53.1706 21.5934H46.1629V25.1923H44.0864V16.195L45.9032 14.3955H44.0864V12.5961H53.1706C53.6551 12.5961 54.0792 12.776 54.4425 13.1359C54.8057 13.4958 54.9874 13.9157 54.9874 14.3955V19.7939ZM52.9112 19.7939V14.3955H46.1629V21.3363L47.72 19.7939H52.9112Z" fill="white"/>
<path d="M66.9255 25.1923H59.6584C59.1566 25.1923 58.7241 25.0209 58.3604 24.6782C58.0145 24.3183 57.8413 23.8899 57.8413 23.3929V17.9945C57.8413 17.4975 58.0145 17.0777 58.3604 16.7349C58.7241 16.375 59.1566 16.1951 59.6584 16.1951H65.1087C65.6105 16.1951 66.0346 16.375 66.3806 16.7349C66.7439 17.0777 66.9255 17.4975 66.9255 17.9945V19.794L65.1087 21.5934H59.9178L61.4752 20.0511H65.1087V17.7375H59.6584V23.65H66.9255V25.1923Z" fill="white"/>
<path d="M77.9553 25.1923H76.1385V17.7375H70.6879V25.1923H68.8711V16.1951H70.6879V17.4804L71.9855 16.1951H76.1385C76.6403 16.1951 77.064 16.375 77.4104 16.7349C77.7737 17.0777 77.9553 17.4975 77.9553 17.9945V25.1923Z" fill="white"/>
<path d="M86.6568 25.1923H83.0229C82.5211 25.1923 82.0885 25.0209 81.7252 24.6781C81.3793 24.3182 81.2061 23.8898 81.2061 23.3928V17.7374H78.6108L80.1678 16.195H81.2061V14.3955L83.0229 12.5961V16.195H86.6568V17.7374H83.0229V23.6499H86.6568V25.1923Z" fill="white"/>
<path d="M97.0403 25.1923H95.2235V23.8813L93.6661 25.1923H89.7732C89.2714 25.1923 88.8388 25.0209 88.4752 24.6782C88.1292 24.3183 87.9561 23.8899 87.9561 23.3929V21.5934C87.9561 21.0964 88.1292 20.6766 88.4752 20.3338C88.8388 19.9739 89.2714 19.794 89.7732 19.794H94.9641L93.4067 21.3107H89.7732V23.65H95.2235V17.7375H87.9561L89.5134 16.1951H95.2235C95.7253 16.1951 96.1494 16.375 96.4953 16.7349C96.8586 17.0777 97.0403 17.4975 97.0403 17.9945V25.1923Z" fill="white"/>
<path d="M107.541 16.1951L105.958 17.7375H101.572V23.65H107.022V25.1923H101.572C101.07 25.1923 100.638 25.0209 100.274 24.6782C99.9281 24.3183 99.7549 23.8899 99.7549 23.3929V17.9945C99.7549 17.4975 99.9281 17.0777 100.274 16.7349C100.638 16.375 101.07 16.1951 101.572 16.1951H107.541Z" fill="white"/>
<path d="M117.537 23.3929C117.537 23.8899 117.356 24.3183 116.992 24.6782C116.646 25.0209 116.222 25.1923 115.721 25.1923H110.27C109.768 25.1923 109.336 25.0209 108.972 24.6782C108.626 24.3183 108.453 23.8899 108.453 23.3929V17.9945C108.453 17.4975 108.626 17.0777 108.972 16.7349C109.336 16.375 109.768 16.1951 110.27 16.1951H115.721C116.222 16.1951 116.646 16.375 116.992 16.7349C117.356 17.0777 117.537 17.4975 117.537 17.9945V23.3929ZM115.721 23.65V17.7375H110.27V23.65H115.721Z" fill="white"/>
<path d="M127.536 19.794H125.719V17.7375H122.085V25.1923H120.269V16.1951H122.085V17.4804L123.383 16.1951H125.719C126.221 16.1951 126.645 16.375 126.991 16.7349C127.354 17.0777 127.536 17.4975 127.536 17.9945V19.794Z" fill="white"/>
<path d="M138.557 25.1923H131.29C130.788 25.1923 130.356 25.0209 129.992 24.6782C129.646 24.3183 129.473 23.8899 129.473 23.3929V17.9945C129.473 17.4975 129.646 17.0777 129.992 16.7349C130.356 16.375 130.788 16.1951 131.29 16.1951H136.741C137.242 16.1951 137.666 16.375 138.012 16.7349C138.376 17.0777 138.557 17.4975 138.557 17.9945V19.794L136.741 21.5934H131.55L133.107 20.0511H136.741V17.7375H131.29V23.65H138.557V25.1923Z" fill="white"/>
</g>
<defs>
<clipPath id="clip0_249_1075">
<rect width="142.033" height="36.8438" fill="white"/>
</clipPath>
</defs>
</svg>
