<svg width="38" height="37" viewBox="0 0 38 37" fill="none" xmlns="http://www.w3.org/2000/svg">
<path d="M37.9457 16.8473L31.6549 21.8535L33.2423 33.1469L28.8474 35.5489L26.0583 14.643L37.9457 16.8473Z" fill="#FF3D3D"/>
<path d="M27.4517 36.4501L20.5637 32.2637L10.5546 36.8437L6.91168 33.4069L25.8831 24.4705L27.4517 36.4501Z" fill="#FF3D3D"/>
<path d="M3.07031 10.5493L10.8028 10.0695L16.1578 0L21.1255 0.639556L11.216 19.2732L3.07031 10.5493Z" fill="#FF3D3D"/>
<path d="M22.7518 1.02342L25.6286 8.30434L36.8619 10.2847L37.7885 15.206L17.0015 11.5414L22.7518 1.02342Z" fill="#FF3D3D"/>
<path d="M5.98317 32.2777L7.6806 24.7404L0 16.4323L2.14345 11.7488L16.5631 27.1916L5.98317 32.2777Z" fill="#FF3D3D"/>
</svg>
