<svg preserveAspectRatio="none" width="100%" height="100%" overflow="visible" style="display: block;" viewBox="0 0 14.3333 10.4667" fill="none" xmlns="http://www.w3.org/2000/svg">
<g id="Group">
<path id="Vector" d="M8.49996 5.2334L6.16663 6.56673V3.90007L8.49996 5.2334Z" fill="var(--fill-0, white)" stroke="var(--stroke-0, white)" stroke-linecap="round" stroke-linejoin="round"/>
<path id="Vector_2" d="M0.500001 5.70533V4.76133C0.500001 2.83133 0.500001 1.866 1.10333 1.24533C1.70733 0.624 2.658 0.597333 4.55867 0.543333C5.45867 0.518 6.37867 0.5 7.16667 0.5C7.95467 0.5 8.874 0.518 9.77467 0.543333C11.6753 0.597333 12.626 0.624 13.2293 1.24533C13.8327 1.86667 13.8333 2.832 13.8333 4.76133V5.70467C13.8333 7.63533 13.8333 8.6 13.23 9.22133C12.626 9.842 11.676 9.86933 9.77467 9.92267C8.87467 9.94867 7.95467 9.96667 7.16667 9.96667C6.37867 9.96667 5.45933 9.94867 4.55867 9.92267C2.658 9.86933 1.70733 9.84267 1.10333 9.22133C0.499334 8.6 0.500001 7.63467 0.500001 5.70533Z" stroke="var(--stroke-0, white)"/>
</g>
</svg>
